<svg width="922" height="221" viewBox="0 0 922 221" fill="none" xmlns="http://www.w3.org/2000/svg">
<path d="M98.4837 149.549V2H150.395V149.549C150.395 163.925 147.083 176.38 140.458 186.916C133.932 197.452 125.033 205.624 113.761 211.434C102.587 217.145 90.0295 220 76.0876 220C61.6512 220 48.7969 217.588 37.5247 212.763C26.3514 207.938 17.5511 200.504 11.124 190.461C4.79572 180.417 1.63159 167.617 1.63159 152.06H53.8398C53.8398 159.346 54.6802 165.057 56.3612 169.192C58.0421 173.229 60.5141 176.085 63.7771 177.759C67.139 179.334 71.2425 180.122 76.0876 180.122C80.8338 180.122 84.8384 178.94 88.1014 176.577C91.4633 174.116 94.0341 170.62 95.8139 166.091C97.5938 161.463 98.4837 155.949 98.4837 149.549Z" fill="#252525"/>
<path d="M325.955 2H378.015V142.459C378.015 159.198 374.505 173.377 367.484 184.996C360.464 196.516 350.625 205.23 337.969 211.138C325.312 217.046 310.431 220 293.325 220C276.417 220 261.535 217.046 248.681 211.138C235.926 205.23 225.939 196.516 218.721 184.996C211.601 173.377 208.042 159.198 208.042 142.459V2H260.25V142.459C260.25 151.321 261.535 158.558 264.106 164.171C266.677 169.685 270.434 173.722 275.378 176.282C280.322 178.842 286.305 180.122 293.325 180.122C300.444 180.122 306.426 178.842 311.272 176.282C316.117 173.722 319.775 169.685 322.247 164.171C324.719 158.558 325.955 151.321 325.955 142.459V2Z" fill="#252525"/>
<path d="M506.261 217.046H458.354L458.651 177.168H506.261C516.149 177.168 524.504 174.805 531.327 170.079C538.249 165.352 543.489 158.312 547.049 148.958C550.707 139.505 552.537 127.887 552.537 114.102V104.797C552.537 94.458 551.498 85.3993 549.422 77.6206C547.444 69.7434 544.478 63.1956 540.523 57.977C536.568 52.6599 531.624 48.6721 525.691 46.0135C519.857 43.355 513.133 42.0257 505.52 42.0257H457.464V2H505.52C520.154 2 533.552 4.51084 545.714 9.53252C557.975 14.4557 568.555 21.5452 577.454 30.8008C586.452 39.958 593.374 50.8383 598.219 63.4417C603.163 75.9467 605.635 89.8302 605.635 105.092V114.102C605.635 129.265 603.163 143.149 598.219 155.752C593.374 168.355 586.502 179.236 577.602 188.393C568.703 197.55 558.173 204.64 546.011 209.661C533.947 214.584 520.697 217.046 506.261 217.046ZM488.166 2V217.046H436.106V2H488.166Z" fill="#252525"/>
<path d="M697.395 2V217.046H668.769V2H697.395Z" fill="#15BE62"/>
<path d="M850.113 2V217.046H821.933V2H850.113ZM919.527 2V25.336H752.668V2H919.527Z" fill="#15BE62"/>
</svg>
